<mxfile host="Electron" modified="2023-08-03T09:27:28.067Z" agent="Mozilla/5.0 (Macintosh; Intel Mac OS X 10_15_7) AppleWebKit/537.36 (KHTML, like Gecko) draw.io/21.6.5 Chrome/114.0.5735.243 Electron/25.3.1 Safari/537.36" etag="hTLg8wOhsqTRZDaZwdFx" version="21.6.5" type="device">
  <diagram id="Ta_ITRcVz4Bdm_ywW9Xz" name="Page-1">
    <mxGraphModel dx="1392" dy="828" grid="1" gridSize="10" guides="1" tooltips="1" connect="1" arrows="1" fold="1" page="1" pageScale="1" pageWidth="1700" pageHeight="1100" math="0" shadow="0">
      <root>
        <mxCell id="0" />
        <mxCell id="1" parent="0" />
        <mxCell id="7FoGzQ1kGSNo0XInAhHn-1" value="" style="shape=singleArrow;whiteSpace=wrap;html=1;fontSize=12;arrowWidth=0.45714285714285713;arrowSize=0.58;fillColor=#CCCCCC;" parent="1" vertex="1">
          <mxGeometry x="510" y="415" width="50" height="70" as="geometry" />
        </mxCell>
        <mxCell id="lWufevYBVzTER42Q3oKB-57" value="" style="rounded=0;whiteSpace=wrap;html=1;fillColor=#d5e8d4;strokeColor=#82b366;" parent="1" vertex="1">
          <mxGeometry x="580" y="140" width="540" height="590" as="geometry" />
        </mxCell>
        <mxCell id="lWufevYBVzTER42Q3oKB-58" value="Selective Disclosure Phase" style="text;html=1;strokeColor=none;fillColor=none;align=center;verticalAlign=middle;whiteSpace=wrap;rounded=0;fontStyle=1;fontSize=21;" parent="1" vertex="1">
          <mxGeometry x="686.0869565217389" y="150" width="327.8260869565217" height="30" as="geometry" />
        </mxCell>
        <mxCell id="n7Sm2ovnSprmrU6ltvT2-32" value="" style="group" vertex="1" connectable="0" parent="1">
          <mxGeometry x="600.0017391304348" y="335" width="499.99739130434773" height="230" as="geometry" />
        </mxCell>
        <mxCell id="n7Sm2ovnSprmrU6ltvT2-27" value="&lt;b style=&quot;border-color: var(--border-color);&quot;&gt;ZK Proof&lt;/b&gt;" style="rounded=1;whiteSpace=wrap;html=1;" vertex="1" parent="n7Sm2ovnSprmrU6ltvT2-32">
          <mxGeometry x="309.99826086956523" y="92.5" width="80" height="35" as="geometry" />
        </mxCell>
        <mxCell id="lWufevYBVzTER42Q3oKB-112" style="edgeStyle=orthogonalEdgeStyle;rounded=0;orthogonalLoop=1;jettySize=auto;html=1;entryX=0;entryY=0.5;entryDx=0;entryDy=0;fontSize=12;fontColor=#000000;startArrow=none;startFill=0;endArrow=classic;endFill=1;fillColor=#000000;exitX=1;exitY=0.5;exitDx=0;exitDy=0;" parent="n7Sm2ovnSprmrU6ltvT2-32" source="n7Sm2ovnSprmrU6ltvT2-27" target="lWufevYBVzTER42Q3oKB-4" edge="1">
          <mxGeometry relative="1" as="geometry" />
        </mxCell>
        <mxCell id="lWufevYBVzTER42Q3oKB-4" value="&lt;b&gt;Verifier&lt;/b&gt;" style="ellipse;whiteSpace=wrap;html=1;aspect=fixed;shadow=1;" parent="n7Sm2ovnSprmrU6ltvT2-32" vertex="1">
          <mxGeometry x="419.99739130434773" y="70" width="80" height="80" as="geometry" />
        </mxCell>
        <mxCell id="lWufevYBVzTER42Q3oKB-111" style="edgeStyle=orthogonalEdgeStyle;rounded=0;orthogonalLoop=1;jettySize=auto;html=1;entryX=0;entryY=0.5;entryDx=0;entryDy=0;fontSize=12;fontColor=#000000;startArrow=none;startFill=0;endArrow=classic;endFill=1;fillColor=#000000;" parent="n7Sm2ovnSprmrU6ltvT2-32" source="lWufevYBVzTER42Q3oKB-87" edge="1">
          <mxGeometry relative="1" as="geometry">
            <mxPoint x="109.99826086956523" y="115" as="targetPoint" />
          </mxGeometry>
        </mxCell>
        <mxCell id="lWufevYBVzTER42Q3oKB-87" value="&lt;b&gt;User&lt;/b&gt;" style="ellipse;whiteSpace=wrap;html=1;aspect=fixed;shadow=1;" parent="n7Sm2ovnSprmrU6ltvT2-32" vertex="1">
          <mxGeometry y="75" width="80" height="80" as="geometry" />
        </mxCell>
        <mxCell id="n7Sm2ovnSprmrU6ltvT2-10" value="" style="rounded=0;whiteSpace=wrap;html=1;fontSize=21;" vertex="1" parent="n7Sm2ovnSprmrU6ltvT2-32">
          <mxGeometry x="109.99826086956523" width="140" height="230" as="geometry" />
        </mxCell>
        <mxCell id="n7Sm2ovnSprmrU6ltvT2-11" value="Notarized Transcript" style="text;html=1;strokeColor=none;fillColor=none;align=center;verticalAlign=middle;whiteSpace=wrap;rounded=0;fontSize=12;fontStyle=1" vertex="1" parent="n7Sm2ovnSprmrU6ltvT2-32">
          <mxGeometry x="114.99826086956523" width="130" height="28.965517241379313" as="geometry" />
        </mxCell>
        <mxCell id="n7Sm2ovnSprmrU6ltvT2-12" value="" style="rounded=0;whiteSpace=wrap;html=1;align=left;" vertex="1" parent="n7Sm2ovnSprmrU6ltvT2-32">
          <mxGeometry x="119.99826086956523" y="38.620000000000005" width="120" height="121.38" as="geometry" />
        </mxCell>
        <mxCell id="n7Sm2ovnSprmrU6ltvT2-13" value="&lt;b&gt;Transcript&lt;/b&gt;" style="text;html=1;strokeColor=none;fillColor=none;align=center;verticalAlign=middle;whiteSpace=wrap;rounded=0;" vertex="1" parent="n7Sm2ovnSprmrU6ltvT2-32">
          <mxGeometry x="129.99826086956523" y="38.62068965517244" width="100" height="28.965517241379313" as="geometry" />
        </mxCell>
        <mxCell id="n7Sm2ovnSprmrU6ltvT2-14" value="&lt;font color=&quot;#cccccc&quot;&gt;1010101010101&lt;br style=&quot;border-color: var(--border-color);&quot;&gt;0101&lt;/font&gt;&lt;font color=&quot;#080808&quot;&gt;&lt;b&gt;0101010&lt;/b&gt;&lt;/font&gt;&lt;font color=&quot;#cccccc&quot;&gt;10&lt;br style=&quot;border-color: var(--border-color);&quot;&gt;1010101110101&lt;/font&gt;" style="rounded=0;whiteSpace=wrap;html=1;" vertex="1" parent="n7Sm2ovnSprmrU6ltvT2-32">
          <mxGeometry x="129.99826086956523" y="96.54999999999995" width="100" height="53.45" as="geometry" />
        </mxCell>
        <mxCell id="n7Sm2ovnSprmrU6ltvT2-15" value="Encrypted Data" style="text;html=1;strokeColor=none;fillColor=none;align=center;verticalAlign=middle;whiteSpace=wrap;rounded=0;" vertex="1" parent="n7Sm2ovnSprmrU6ltvT2-32">
          <mxGeometry x="134.99826086956523" y="67.58620689655174" width="90" height="28.965517241379313" as="geometry" />
        </mxCell>
        <mxCell id="n7Sm2ovnSprmrU6ltvT2-16" value="&lt;b&gt;Signature&lt;/b&gt;" style="rounded=0;whiteSpace=wrap;html=1;fontSize=12;" vertex="1" parent="n7Sm2ovnSprmrU6ltvT2-32">
          <mxGeometry x="119.99826086956523" y="200" width="120" height="21.38" as="geometry" />
        </mxCell>
        <mxCell id="n7Sm2ovnSprmrU6ltvT2-17" value="&lt;b&gt;Metadata&lt;/b&gt;" style="rounded=0;whiteSpace=wrap;html=1;fontSize=12;" vertex="1" parent="n7Sm2ovnSprmrU6ltvT2-32">
          <mxGeometry x="119.99826086956523" y="170" width="120" height="20" as="geometry" />
        </mxCell>
        <mxCell id="lWufevYBVzTER42Q3oKB-107" style="edgeStyle=elbowEdgeStyle;rounded=0;orthogonalLoop=1;jettySize=auto;html=1;exitX=1;exitY=0.5;exitDx=0;exitDy=0;entryX=0;entryY=0.5;entryDx=0;entryDy=0;fontSize=12;fontColor=#000000;startArrow=none;startFill=0;endArrow=classic;endFill=1;fillColor=#000000;" parent="n7Sm2ovnSprmrU6ltvT2-32" source="n7Sm2ovnSprmrU6ltvT2-16" target="n7Sm2ovnSprmrU6ltvT2-27" edge="1">
          <mxGeometry relative="1" as="geometry">
            <Array as="points">
              <mxPoint x="279.99826086956523" y="155" />
            </Array>
            <mxPoint x="239.99826086956523" y="235" as="sourcePoint" />
          </mxGeometry>
        </mxCell>
        <mxCell id="lWufevYBVzTER42Q3oKB-106" style="edgeStyle=elbowEdgeStyle;rounded=0;orthogonalLoop=1;jettySize=auto;html=1;fontSize=12;fontColor=#000000;startArrow=none;startFill=0;endArrow=classic;endFill=1;fillColor=#000000;exitX=1;exitY=0.5;exitDx=0;exitDy=0;entryX=0;entryY=0.5;entryDx=0;entryDy=0;" parent="n7Sm2ovnSprmrU6ltvT2-32" source="n7Sm2ovnSprmrU6ltvT2-17" edge="1" target="n7Sm2ovnSprmrU6ltvT2-27">
          <mxGeometry relative="1" as="geometry">
            <mxPoint x="319.99826086956523" y="110" as="targetPoint" />
            <Array as="points">
              <mxPoint x="279.99826086956523" y="145" />
            </Array>
            <mxPoint x="239.99826086956523" y="195.0344827586207" as="sourcePoint" />
          </mxGeometry>
        </mxCell>
        <mxCell id="lWufevYBVzTER42Q3oKB-105" value="" style="endArrow=classic;html=1;rounded=0;fontSize=12;fontColor=#000000;fillColor=#000000;edgeStyle=elbowEdgeStyle;exitX=1;exitY=0.5;exitDx=0;exitDy=0;entryX=0;entryY=0.5;entryDx=0;entryDy=0;" parent="n7Sm2ovnSprmrU6ltvT2-32" source="n7Sm2ovnSprmrU6ltvT2-22" target="n7Sm2ovnSprmrU6ltvT2-27" edge="1">
          <mxGeometry width="50" height="50" relative="1" as="geometry">
            <mxPoint x="209.99826086956523" y="109.96000000000004" as="sourcePoint" />
            <mxPoint x="319.99826086956523" y="175" as="targetPoint" />
            <Array as="points">
              <mxPoint x="279.99826086956523" y="115" />
            </Array>
          </mxGeometry>
        </mxCell>
        <mxCell id="n7Sm2ovnSprmrU6ltvT2-22" value="&lt;b style=&quot;border-color: var(--border-color); color: rgb(8, 8, 8); font-family: Helvetica; font-size: 12px; font-style: normal; font-variant-ligatures: normal; font-variant-caps: normal; letter-spacing: normal; orphans: 2; text-align: center; text-indent: 0px; text-transform: none; widows: 2; word-spacing: 0px; -webkit-text-stroke-width: 0px; background-color: rgb(251, 251, 251); text-decoration-thickness: initial; text-decoration-style: initial; text-decoration-color: initial;&quot;&gt;0&lt;/b&gt;" style="text;whiteSpace=wrap;html=1;fillColor=none;textOpacity=0;" vertex="1" parent="n7Sm2ovnSprmrU6ltvT2-32">
          <mxGeometry x="201.99826086956523" y="118.26999999999998" width="9" height="10" as="geometry" />
        </mxCell>
        <mxCell id="lWufevYBVzTER42Q3oKB-31" value="" style="rounded=0;whiteSpace=wrap;html=1;fillColor=#dae8fc;strokeColor=#6c8ebf;container=0;" parent="1" vertex="1">
          <mxGeometry x="20" y="140" width="470" height="590" as="geometry" />
        </mxCell>
        <mxCell id="lWufevYBVzTER42Q3oKB-1" value="&lt;b&gt;Server&lt;/b&gt;" style="ellipse;whiteSpace=wrap;html=1;aspect=fixed;shadow=1;" parent="1" vertex="1">
          <mxGeometry x="40" y="198" width="80" height="80" as="geometry" />
        </mxCell>
        <mxCell id="lWufevYBVzTER42Q3oKB-2" value="&lt;b&gt;User&lt;/b&gt;" style="ellipse;whiteSpace=wrap;html=1;aspect=fixed;shadow=1;" parent="1" vertex="1">
          <mxGeometry x="200" y="198" width="80" height="80" as="geometry" />
        </mxCell>
        <mxCell id="lWufevYBVzTER42Q3oKB-23" style="edgeStyle=orthogonalEdgeStyle;curved=1;rounded=0;orthogonalLoop=1;jettySize=auto;html=1;exitX=1;exitY=0.5;exitDx=0;exitDy=0;entryX=0;entryY=0.5;entryDx=0;entryDy=0;startArrow=classic;startFill=1;endArrow=classic;endFill=1;" parent="1" source="lWufevYBVzTER42Q3oKB-1" target="lWufevYBVzTER42Q3oKB-2" edge="1">
          <mxGeometry relative="1" as="geometry" />
        </mxCell>
        <mxCell id="lWufevYBVzTER42Q3oKB-29" style="edgeStyle=orthogonalEdgeStyle;curved=1;rounded=0;orthogonalLoop=1;jettySize=auto;html=1;entryX=1;entryY=0.5;entryDx=0;entryDy=0;startArrow=classic;startFill=1;endArrow=classic;endFill=1;" parent="1" source="lWufevYBVzTER42Q3oKB-3" target="lWufevYBVzTER42Q3oKB-2" edge="1">
          <mxGeometry relative="1" as="geometry" />
        </mxCell>
        <mxCell id="lWufevYBVzTER42Q3oKB-3" value="&lt;b&gt;Notary&lt;/b&gt;" style="ellipse;whiteSpace=wrap;html=1;aspect=fixed;shadow=1;" parent="1" vertex="1">
          <mxGeometry x="360" y="198" width="80" height="80" as="geometry" />
        </mxCell>
        <mxCell id="lWufevYBVzTER42Q3oKB-30" style="edgeStyle=orthogonalEdgeStyle;curved=1;rounded=0;orthogonalLoop=1;jettySize=auto;html=1;startArrow=classic;startFill=1;endArrow=none;endFill=0;exitX=0.5;exitY=0;exitDx=0;exitDy=0;" parent="1" source="n7Sm2ovnSprmrU6ltvT2-34" edge="1">
          <mxGeometry relative="1" as="geometry">
            <mxPoint x="320" y="238" as="targetPoint" />
            <mxPoint x="240" y="343" as="sourcePoint" />
          </mxGeometry>
        </mxCell>
        <mxCell id="lWufevYBVzTER42Q3oKB-24" style="edgeStyle=orthogonalEdgeStyle;curved=1;rounded=0;orthogonalLoop=1;jettySize=auto;html=1;startArrow=classic;startFill=1;endArrow=none;endFill=0;exitX=0.5;exitY=0;exitDx=0;exitDy=0;" parent="1" source="n7Sm2ovnSprmrU6ltvT2-34" edge="1">
          <mxGeometry relative="1" as="geometry">
            <mxPoint x="160" y="238" as="targetPoint" />
            <mxPoint x="240" y="343" as="sourcePoint" />
          </mxGeometry>
        </mxCell>
        <mxCell id="lWufevYBVzTER42Q3oKB-32" style="edgeStyle=orthogonalEdgeStyle;curved=1;rounded=0;orthogonalLoop=1;jettySize=auto;html=1;entryX=0.5;entryY=0;entryDx=0;entryDy=0;startArrow=none;startFill=0;endArrow=none;endFill=0;" parent="1" source="lWufevYBVzTER42Q3oKB-2" target="n7Sm2ovnSprmrU6ltvT2-34" edge="1">
          <mxGeometry relative="1" as="geometry" />
        </mxCell>
        <mxCell id="lWufevYBVzTER42Q3oKB-36" value="Notarization Phase" style="text;html=1;strokeColor=none;fillColor=none;align=center;verticalAlign=middle;whiteSpace=wrap;rounded=0;fontStyle=1;fontSize=21;" parent="1" vertex="1">
          <mxGeometry x="140" y="145.31914893617022" width="200" height="45.95744680851064" as="geometry" />
        </mxCell>
        <mxCell id="n7Sm2ovnSprmrU6ltvT2-3" style="edgeStyle=elbowEdgeStyle;rounded=0;orthogonalLoop=1;jettySize=auto;html=1;exitX=1;exitY=0.5;exitDx=0;exitDy=0;entryX=0;entryY=0.5;entryDx=0;entryDy=0;" edge="1" parent="1" source="n7Sm2ovnSprmrU6ltvT2-34" target="lWufevYBVzTER42Q3oKB-10">
          <mxGeometry relative="1" as="geometry">
            <mxPoint x="340" y="388" as="targetPoint" />
            <mxPoint x="270" y="358" as="sourcePoint" />
          </mxGeometry>
        </mxCell>
        <mxCell id="n7Sm2ovnSprmrU6ltvT2-8" value="" style="group" vertex="1" connectable="0" parent="1">
          <mxGeometry x="330" y="485" width="140" height="230" as="geometry" />
        </mxCell>
        <mxCell id="lWufevYBVzTER42Q3oKB-49" value="" style="rounded=0;whiteSpace=wrap;html=1;fontSize=21;" parent="n7Sm2ovnSprmrU6ltvT2-8" vertex="1">
          <mxGeometry width="140" height="230" as="geometry" />
        </mxCell>
        <mxCell id="lWufevYBVzTER42Q3oKB-50" value="Notarized Transcript" style="text;html=1;strokeColor=none;fillColor=none;align=center;verticalAlign=middle;whiteSpace=wrap;rounded=0;fontSize=12;fontStyle=1" parent="n7Sm2ovnSprmrU6ltvT2-8" vertex="1">
          <mxGeometry x="5" width="130" height="28.965517241379313" as="geometry" />
        </mxCell>
        <mxCell id="lWufevYBVzTER42Q3oKB-41" value="" style="rounded=0;whiteSpace=wrap;html=1;align=left;" parent="n7Sm2ovnSprmrU6ltvT2-8" vertex="1">
          <mxGeometry x="10" y="38.620000000000005" width="120" height="121.38" as="geometry" />
        </mxCell>
        <mxCell id="lWufevYBVzTER42Q3oKB-42" value="&lt;b&gt;Transcript&lt;/b&gt;" style="text;html=1;strokeColor=none;fillColor=none;align=center;verticalAlign=middle;whiteSpace=wrap;rounded=0;" parent="n7Sm2ovnSprmrU6ltvT2-8" vertex="1">
          <mxGeometry x="20" y="38.62068965517244" width="100" height="28.965517241379313" as="geometry" />
        </mxCell>
        <mxCell id="lWufevYBVzTER42Q3oKB-43" value="1010101010101&lt;br style=&quot;border-color: var(--border-color);&quot;&gt;0101010101010&lt;br style=&quot;border-color: var(--border-color);&quot;&gt;1010101110101" style="rounded=0;whiteSpace=wrap;html=1;" parent="n7Sm2ovnSprmrU6ltvT2-8" vertex="1">
          <mxGeometry x="20" y="96.54999999999995" width="100" height="53.45" as="geometry" />
        </mxCell>
        <mxCell id="lWufevYBVzTER42Q3oKB-44" value="Encrypted Data" style="text;html=1;strokeColor=none;fillColor=none;align=center;verticalAlign=middle;whiteSpace=wrap;rounded=0;" parent="n7Sm2ovnSprmrU6ltvT2-8" vertex="1">
          <mxGeometry x="25" y="67.58620689655174" width="90" height="28.965517241379313" as="geometry" />
        </mxCell>
        <mxCell id="lWufevYBVzTER42Q3oKB-51" value="&lt;b&gt;Signature&lt;/b&gt;" style="rounded=0;whiteSpace=wrap;html=1;fontSize=12;" parent="n7Sm2ovnSprmrU6ltvT2-8" vertex="1">
          <mxGeometry x="10" y="200" width="120" height="21.38" as="geometry" />
        </mxCell>
        <mxCell id="lWufevYBVzTER42Q3oKB-52" value="&lt;b&gt;Metadata&lt;/b&gt;" style="rounded=0;whiteSpace=wrap;html=1;fontSize=12;" parent="n7Sm2ovnSprmrU6ltvT2-8" vertex="1">
          <mxGeometry x="10" y="170" width="120" height="20" as="geometry" />
        </mxCell>
        <mxCell id="lWufevYBVzTER42Q3oKB-48" value="" style="sketch=0;html=1;aspect=fixed;strokeColor=none;shadow=0;align=center;verticalAlign=top;fillColor=#2D9C5E;shape=mxgraph.gcp2.check;fontSize=21;" parent="n7Sm2ovnSprmrU6ltvT2-8" vertex="1">
          <mxGeometry x="100" y="38.620000000000005" width="27.97" height="22.38" as="geometry" />
        </mxCell>
        <mxCell id="n7Sm2ovnSprmrU6ltvT2-6" value="" style="group" vertex="1" connectable="0" parent="1">
          <mxGeometry x="340" y="285" width="120" height="120" as="geometry" />
        </mxCell>
        <mxCell id="lWufevYBVzTER42Q3oKB-10" value="" style="rounded=0;whiteSpace=wrap;html=1;align=left;" parent="n7Sm2ovnSprmrU6ltvT2-6" vertex="1">
          <mxGeometry width="120" height="120" as="geometry" />
        </mxCell>
        <mxCell id="lWufevYBVzTER42Q3oKB-11" value="Transcript" style="text;html=1;strokeColor=none;fillColor=none;align=center;verticalAlign=middle;whiteSpace=wrap;rounded=0;fontStyle=1" parent="n7Sm2ovnSprmrU6ltvT2-6" vertex="1">
          <mxGeometry x="10" width="100" height="30" as="geometry" />
        </mxCell>
        <mxCell id="lWufevYBVzTER42Q3oKB-26" value="1010101010101&lt;br style=&quot;border-color: var(--border-color);&quot;&gt;0101010101010&lt;br style=&quot;border-color: var(--border-color);&quot;&gt;1010101110101" style="rounded=0;whiteSpace=wrap;html=1;" parent="n7Sm2ovnSprmrU6ltvT2-6" vertex="1">
          <mxGeometry x="10" y="60" width="100" height="50" as="geometry" />
        </mxCell>
        <mxCell id="lWufevYBVzTER42Q3oKB-27" value="Encrypted Data" style="text;html=1;strokeColor=none;fillColor=none;align=center;verticalAlign=middle;whiteSpace=wrap;rounded=0;" parent="n7Sm2ovnSprmrU6ltvT2-6" vertex="1">
          <mxGeometry x="15" y="30" width="90" height="30" as="geometry" />
        </mxCell>
        <mxCell id="n7Sm2ovnSprmrU6ltvT2-26" value="" style="endArrow=classic;html=1;rounded=0;" edge="1" parent="1">
          <mxGeometry width="50" height="50" relative="1" as="geometry">
            <mxPoint x="330" y="582.8" as="sourcePoint" />
            <mxPoint x="250" y="583" as="targetPoint" />
          </mxGeometry>
        </mxCell>
        <mxCell id="n7Sm2ovnSprmrU6ltvT2-33" value="&lt;b style=&quot;border-color: var(--border-color);&quot;&gt;Notarize&lt;/b&gt;" style="rounded=1;whiteSpace=wrap;html=1;" vertex="1" parent="1">
          <mxGeometry x="360" y="430" width="80" height="35" as="geometry" />
        </mxCell>
        <mxCell id="n7Sm2ovnSprmrU6ltvT2-34" value="&lt;b style=&quot;border-color: var(--border-color);&quot;&gt;Multi-party request&lt;/b&gt;" style="rounded=1;whiteSpace=wrap;html=1;" vertex="1" parent="1">
          <mxGeometry x="200" y="327.5" width="80" height="35" as="geometry" />
        </mxCell>
        <mxCell id="n7Sm2ovnSprmrU6ltvT2-35" value="" style="endArrow=classic;html=1;rounded=0;entryX=0.5;entryY=0;entryDx=0;entryDy=0;" edge="1" parent="1" source="lWufevYBVzTER42Q3oKB-10" target="n7Sm2ovnSprmrU6ltvT2-33">
          <mxGeometry width="50" height="50" relative="1" as="geometry">
            <mxPoint x="370" y="418" as="sourcePoint" />
            <mxPoint x="420" y="368" as="targetPoint" />
          </mxGeometry>
        </mxCell>
        <mxCell id="n7Sm2ovnSprmrU6ltvT2-37" value="" style="endArrow=classic;html=1;rounded=0;entryX=0.5;entryY=0;entryDx=0;entryDy=0;exitX=0.5;exitY=1;exitDx=0;exitDy=0;" edge="1" parent="1" source="n7Sm2ovnSprmrU6ltvT2-33" target="lWufevYBVzTER42Q3oKB-50">
          <mxGeometry width="50" height="50" relative="1" as="geometry">
            <mxPoint x="400" y="458" as="sourcePoint" />
            <mxPoint x="420" y="438" as="targetPoint" />
          </mxGeometry>
        </mxCell>
      </root>
    </mxGraphModel>
  </diagram>
</mxfile>
